<svg width="24" height="20" viewBox="0 0 24 20" fill="none" xmlns="http://www.w3.org/2000/svg">
<path fill-rule="evenodd" clip-rule="evenodd" d="M4.98488 0C3.61547 0 2.60217 1.25385 2.64755 2.61362C2.69109 3.91998 2.63452 5.61192 2.22736 6.99169C1.81875 8.37534 1.12819 9.25215 0 9.36469V10.6353C1.12819 10.7481 1.81875 11.6245 2.22731 13.0083C2.63452 14.3881 2.69105 16.08 2.6475 17.3864C2.60212 18.746 3.61542 20 4.98506 20H19.017C20.3864 20 21.3995 18.7461 21.3541 17.3864C21.3105 16.08 21.3671 14.3881 21.7743 13.0083C22.1829 11.6245 22.8718 10.7477 24 10.6353V9.36469C22.8718 9.25191 22.1829 8.37554 21.7743 6.99169C21.3671 5.61212 21.3105 3.91998 21.3541 2.61362C21.3995 1.25405 20.3864 0 19.017 0H4.98469H4.98488ZM16.2712 12.3113C16.2712 14.1836 14.9362 15.3192 12.7206 15.3192H8.94914C8.84126 15.3192 8.73779 15.2743 8.6615 15.1945C8.58522 15.1147 8.54236 15.0065 8.54236 14.8936V5.10641C8.54236 4.99355 8.58522 4.88531 8.6615 4.80551C8.73779 4.72571 8.84126 4.68087 8.94914 4.68087H12.6991C14.5465 4.68087 15.759 5.72769 15.759 7.3349C15.759 8.46297 14.9433 9.47286 13.9042 9.64979V9.70863C15.3187 9.87094 16.2712 10.8958 16.2712 12.3113ZM12.3094 6.0298H10.1589V9.20733H11.9701C13.3703 9.20733 14.1423 8.61753 14.1423 7.56331C14.1422 6.57533 13.4784 6.0298 12.3094 6.0298ZM10.1589 10.4681V13.9698H12.3885C13.8463 13.9698 14.6185 13.3579 14.6185 12.2079C14.6185 11.0579 13.8247 10.4679 12.2948 10.4679H10.1589V10.4681Z" fill="#7952B3"/>
</svg>
