<svg width="20" height="24" viewBox="0 0 20 24" fill="none" xmlns="http://www.w3.org/2000/svg">
<path d="M20 0L18.1779 21.5975L9.98776 24L1.82012 21.6009L0 0H20Z" fill="#264DE4"/>
<path d="M16.6181 20.2223L18.1751 1.76624H10V22.1637L16.6181 20.2223Z" fill="#2965F1"/>
<path d="M4.17261 9.77759L4.39701 12.4268H10V9.77759H4.17261Z" fill="#EBEBEB"/>
<path d="M10 4.41541H9.99134H3.72168L3.94928 7.06469H10V4.41541Z" fill="#EBEBEB"/>
<path d="M9.99998 19.4143V16.658L9.98901 16.6611L7.20052 15.8644L7.02226 13.7515H5.66728H4.50885L4.85963 17.9112L9.98846 19.4177L9.99998 19.4143Z" fill="#EBEBEB"/>
<path d="M13.0745 12.4268L12.7838 15.8627L9.99133 16.6602V19.4164L15.1242 17.9112L15.1619 17.4636L15.7503 10.489L15.8114 9.77757L16.2634 4.41541H9.99133V7.06469H13.5194L13.2916 9.77757H9.99133V12.4268H13.0745Z" fill="white"/>
</svg>
