<svg width="59" height="103" viewBox="0 0 59 103" fill="none" xmlns="http://www.w3.org/2000/svg">
<path d="M27.6027 0.95277C19.5823 1.8059 13.256 7.44262 12.3917 14.5317C12.2189 15.9739 12.2189 37.7082 12.3917 39.1504C13.1638 45.5082 18.3378 50.7793 25.321 52.3332C31.4284 53.6942 37.7433 52.1098 42.0646 48.1489C44.4269 45.9754 45.8788 43.5582 46.6279 40.552L46.8929 39.4856V26.8411V14.1965L46.6279 13.1301C45.199 7.40199 40.5665 2.99418 34.3323 1.44027C32.3618 0.942616 29.5732 0.749645 27.6027 0.95277ZM31.9124 4.15199C37.6511 5.02543 42.2144 9.02699 43.2054 14.0239C43.4589 15.3036 43.4589 38.3786 43.2054 39.6582C42.3527 43.995 38.7343 47.6715 33.9521 49.0832C25.9894 51.4192 17.4505 46.9098 16.0216 39.5871C15.745 38.2161 15.745 15.4661 16.0216 14.095C17.0011 9.07777 21.5298 5.0559 27.1878 4.16215C28.4439 3.95902 30.6448 3.95902 31.9124 4.15199Z" fill="white"/>
<path d="M28.7435 11.4239C28.5361 11.5559 28.248 11.7895 28.1213 11.9418C27.8908 12.2262 27.8793 12.3278 27.8793 16.3293C27.8793 20.3309 27.8908 20.4325 28.1213 20.7168C28.974 21.7325 30.5181 21.702 31.1404 20.6457C31.3939 20.1989 31.3939 20.1379 31.3939 16.3395C31.3939 12.6934 31.3824 12.4598 31.1635 12.0637C30.7256 11.2715 29.5271 10.9567 28.7435 11.4239Z" fill="white"/>
<path d="M30.1657 88.1657C29.6262 88.1668 29.1034 87.9789 28.688 87.6347L14.8341 76.0898C14.3626 75.6979 14.0661 75.1347 14.0098 74.5241C13.9535 73.9136 14.142 73.3057 14.534 72.8341C14.9259 72.3626 15.4891 72.0661 16.0996 72.0098C16.7102 71.9535 17.3181 72.142 17.7896 72.534L30.1657 82.8782L42.5418 72.9034C42.778 72.7116 43.0498 72.5684 43.3415 72.4819C43.6332 72.3955 43.9391 72.3676 44.2417 72.3998C44.5442 72.432 44.8374 72.5236 45.1044 72.6695C45.3714 72.8153 45.6069 73.0125 45.7975 73.2497C46.0089 73.4871 46.1691 73.7657 46.2679 74.0679C46.3667 74.37 46.402 74.6894 46.3717 75.0059C46.3413 75.3223 46.246 75.6291 46.0915 75.907C45.9371 76.1849 45.7269 76.4279 45.4742 76.6208L31.6204 87.7732C31.193 88.063 30.6809 88.2012 30.1657 88.1657Z" fill="white"/>
</svg>
