<svg width="24" height="24" viewBox="0 0 24 24" fill="none" xmlns="http://www.w3.org/2000/svg">
<path d="M22.1065 18.5624C20.8007 18.5292 19.7886 18.6623 18.9398 19.028C18.695 19.1277 18.3032 19.1278 18.2705 19.4438C18.4011 19.5768 18.4174 19.793 18.5317 19.9759C18.7278 20.3084 19.0704 20.7574 19.3805 20.9903C19.7233 21.2563 20.0662 21.5223 20.4251 21.7552C21.0618 22.1543 21.7801 22.387 22.4003 22.7862C22.7596 23.0188 23.1185 23.3183 23.4776 23.5677C23.6572 23.7006 23.7714 23.9169 24 24V23.9502C23.8856 23.8004 23.853 23.5843 23.7388 23.418C23.5757 23.2517 23.4123 23.102 23.2491 22.9357C22.7757 22.2873 22.1881 21.7219 21.5515 21.2563C21.0292 20.8905 19.8865 20.3916 19.6744 19.7763C19.6744 19.7763 19.658 19.7598 19.6417 19.7431C20.0008 19.7099 20.4251 19.5768 20.768 19.4771C21.323 19.3273 21.829 19.3606 22.4003 19.211C22.6615 19.1444 22.9227 19.0613 23.1838 18.9781V18.8286C22.8901 18.5292 22.6779 18.1302 22.3677 17.8475C21.5352 17.1156 20.621 16.4007 19.6744 15.8021C19.1683 15.4695 18.5153 15.2533 17.9767 14.9707C17.781 14.8708 17.4544 14.821 17.3402 14.6547C17.0463 14.2889 16.883 13.8067 16.6709 13.3743C16.1976 12.4596 15.7404 11.4454 15.3323 10.481C15.0387 9.83238 14.8591 9.18379 14.4999 8.58528C12.8187 5.75837 10.9905 4.04562 8.18296 2.36602C7.57894 2.01688 6.86074 1.8672 6.09356 1.68436C5.68563 1.66764 5.27741 1.63447 4.86938 1.61774C4.60818 1.50133 4.34699 1.18545 4.11844 1.03577C3.1882 0.43707 0.788533 -0.859827 0.102981 0.85293C-0.337791 1.93373 0.755977 2.99789 1.13126 3.54679C1.40897 3.9292 1.76793 4.3615 1.96383 4.7939C2.07811 5.07642 2.11066 5.37597 2.22494 5.67522C2.48623 6.40668 2.73091 7.22167 3.07383 7.90352C3.2534 8.25267 3.44921 8.61845 3.67776 8.93443C3.80836 9.11727 4.03681 9.20052 4.08588 9.49977C3.85743 9.83238 3.84101 10.3313 3.71031 10.747C3.12271 12.626 3.35135 14.954 4.18374 16.3342C4.44484 16.7497 5.06519 17.6646 5.89766 17.3153C6.63228 17.016 6.46903 16.0682 6.68107 15.2367C6.73023 15.037 6.69758 14.9041 6.79544 14.7711V14.8044C7.02399 15.2699 7.25244 15.719 7.46466 16.1846C7.97074 16.9993 8.85209 17.8475 9.58662 18.4129C9.97851 18.7121 10.2886 19.2276 10.7783 19.4105V19.3605H10.7456C10.6476 19.2109 10.5007 19.1444 10.3702 19.0279C10.0765 18.7288 9.74987 18.3629 9.52141 18.0303C8.83596 17.099 8.23184 16.0681 7.69321 15.0038C7.43211 14.4885 7.20347 13.923 6.99134 13.4076C6.89329 13.2078 6.89329 12.9087 6.73014 12.809C6.48526 13.1747 6.12621 13.4907 5.94664 13.9397C5.63665 14.6547 5.60391 15.536 5.48963 16.4505C5.42433 16.4673 5.45689 16.4505 5.42424 16.4839C4.90203 16.3507 4.72246 15.8021 4.52646 15.3364C4.03672 14.1559 3.95509 12.2602 4.37963 10.8966C4.49391 10.5474 4.98366 9.44998 4.78776 9.11736C4.68981 8.80138 4.36322 8.61845 4.18374 8.36909C3.97161 8.0531 3.74296 7.65416 3.59613 7.30482C3.20434 6.37361 3.00844 5.34261 2.58408 4.41139C2.38819 3.979 2.04555 3.53016 1.76793 3.13103C1.45785 2.6821 1.11503 2.36602 0.870158 1.83394C0.788627 1.6511 0.674259 1.35175 0.804858 1.15218C0.837508 1.01914 0.902713 0.969344 1.03341 0.936083C1.24563 0.753051 1.84965 0.985879 2.06169 1.08566C2.66571 1.33493 3.17169 1.56795 3.67776 1.9171C3.90621 2.0834 4.15109 2.39938 4.44484 2.48253H4.78766C5.31006 2.59885 5.89757 2.5158 6.38731 2.66537C7.25253 2.948 8.03594 3.36376 8.73791 3.81279C10.8763 5.19293 12.639 7.15515 13.8307 9.49977C14.0266 9.88208 14.1081 10.2315 14.2877 10.6305C14.6306 11.4454 15.055 12.2768 15.3976 13.075C15.7404 13.8564 16.0669 14.6547 16.5566 15.3033C16.8015 15.6523 17.7808 15.8353 18.2215 16.0183C18.548 16.1679 19.0541 16.301 19.3479 16.4838C19.9028 16.8329 20.4578 17.2322 20.9802 17.6145C21.2414 17.8141 22.0574 18.2299 22.1065 18.5624Z" fill="#00546B"/>
<path d="M5.45679 4.11194C5.17936 4.11194 4.98356 4.14539 4.78766 4.19519V4.22845H4.82031C4.951 4.49454 5.17936 4.67747 5.34252 4.91021C5.47321 5.1762 5.58739 5.44238 5.71808 5.70847C5.73431 5.69175 5.75064 5.67521 5.75064 5.67521C5.97928 5.50881 6.09346 5.24282 6.09346 4.84368C5.99551 4.72736 5.97919 4.61095 5.89756 4.49454C5.79971 4.32814 5.58739 4.24508 5.45679 4.11194Z" fill="#00546B"/>
</svg>
