<svg width="36" height="19" viewBox="0 0 36 19" fill="none" xmlns="http://www.w3.org/2000/svg">
<path fill-rule="evenodd" clip-rule="evenodd" d="M18 18.1625C27.8969 18.1625 35.9198 14.0966 35.9198 9.08127C35.9198 4.06598 27.8969 0 18 0C8.10336 0 0.0802002 4.06598 0.0802002 9.08127C0.0802002 14.0966 8.10336 18.1625 18 18.1625Z" fill="#6E81B6"/>
<path fill-rule="evenodd" clip-rule="evenodd" d="M21.6317 12.0165L22.5206 7.4417C22.7212 6.40917 22.5544 5.63906 22.025 5.15237C21.5121 4.6815 20.6414 4.45246 19.3634 4.45246H17.824L18.2643 2.18588C18.2726 2.1437 18.2714 2.10021 18.2608 2.05854C18.2503 2.01687 18.2307 1.97805 18.2033 1.94486C18.176 1.91168 18.1417 1.88495 18.1028 1.86661C18.064 1.84826 18.0215 1.83875 17.9785 1.83875H15.8539C15.7143 1.83875 15.5945 1.93777 15.5678 2.07472L14.6237 6.93139C14.5379 6.3849 14.3264 5.91512 13.988 5.52746C13.3648 4.81411 12.379 4.45246 11.0579 4.45246H6.9399C6.80036 4.45246 6.68053 4.55149 6.65387 4.68822L4.74332 14.519C4.72663 14.6046 4.74895 14.6926 4.80443 14.7598C4.85968 14.8271 4.94202 14.8659 5.02935 14.8659H7.17068C7.31023 14.8659 7.43006 14.7669 7.45671 14.6297L7.91891 12.252H9.51288C10.3493 12.252 11.0522 12.1614 11.6009 11.9829C12.1619 11.8004 12.6783 11.491 13.1333 11.065C13.5011 10.7272 13.8049 10.3488 14.0387 9.94079L13.6571 11.9049C13.6404 11.9905 13.6627 12.0789 13.7182 12.1456C13.7734 12.213 13.856 12.2518 13.9431 12.2518H16.0677C16.2073 12.2518 16.3271 12.1528 16.3538 12.016L17.4023 6.61979H18.8602C19.4815 6.61979 19.6635 6.74352 19.7131 6.79661C19.758 6.84515 19.8512 7.01612 19.7465 7.55503L18.9014 11.9046C18.8933 11.9468 18.8946 11.9903 18.9052 12.0319C18.9158 12.0735 18.9355 12.1122 18.9628 12.1454C18.9902 12.1785 19.0244 12.2052 19.0633 12.2236C19.1021 12.2419 19.1445 12.2515 19.1874 12.2516H21.3459C21.4134 12.2517 21.4789 12.2283 21.5311 12.1854C21.5832 12.1425 21.6188 12.0828 21.6317 12.0165ZM11.7814 8.23652C11.6479 8.92234 11.3966 9.41141 11.0338 9.69029C10.6655 9.97437 10.0763 10.1183 9.28254 10.1183H8.33344L9.01969 6.58664H10.2468C11.1482 6.58664 11.5114 6.77928 11.6572 6.94071C11.8594 7.16477 11.9023 7.6131 11.7814 8.23652ZM30.5812 5.52746C29.9582 4.81411 28.9725 4.45246 27.6513 4.45246H23.5334C23.3936 4.45246 23.274 4.55149 23.2473 4.68822L21.337 14.519C21.3201 14.6046 21.3424 14.6926 21.3979 14.7598C21.4534 14.8269 21.5359 14.8659 21.6226 14.8659H23.7641C23.9039 14.8659 24.0235 14.7669 24.0502 14.6297L24.5124 12.252H26.1066C26.9432 12.252 27.6455 12.1614 28.1944 11.9829C28.7556 11.8004 29.272 11.491 29.7268 11.065C30.1064 10.7163 30.4187 10.3243 30.6553 9.90113C30.8919 9.47794 31.0616 9.00598 31.1606 8.49806C31.404 7.24538 31.2092 6.246 30.5812 5.52746ZM28.4964 8.23652C28.3627 8.92234 28.1114 9.41141 27.7491 9.69029C27.3805 9.97437 26.7913 10.1183 25.9978 10.1183H25.0485L25.7345 6.58664H26.9618C27.8633 6.58664 28.2264 6.77928 28.3725 6.94071C28.5742 7.16477 28.6173 7.6131 28.4964 8.23652Z" fill="white"/>
<path fill-rule="evenodd" clip-rule="evenodd" d="M10.1859 6.29524C10.9993 6.29524 11.5417 6.44541 11.8128 6.74574C12.0837 7.04607 12.1482 7.56179 12.0065 8.29225C11.8583 9.05305 11.5731 9.59607 11.1506 9.92154C10.728 10.247 10.0849 10.4095 9.22161 10.4095H7.91887L8.71846 6.29524H10.1859ZM4.9682 14.5745H7.10953L7.61767 11.961H9.45196C10.2613 11.961 10.9272 11.8759 11.4498 11.7058C11.9725 11.5357 12.4477 11.2507 12.8752 10.8505C13.2341 10.5209 13.5244 10.1569 13.7468 9.75902C13.9689 9.36118 14.1266 8.92238 14.22 8.44242C14.4467 7.27706 14.2757 6.36935 13.7075 5.71928C13.1396 5.06899 12.2358 4.74396 10.997 4.74396H6.87898L4.9682 14.5745ZM15.7928 2.13025H17.9174L17.4095 4.74396H19.3025C20.493 4.74396 21.3149 4.95155 21.7669 5.36694C22.2189 5.78234 22.3544 6.45559 22.1736 7.38627L21.2848 11.961H19.1263L19.9714 7.6112C20.0674 7.11628 20.0323 6.77889 19.8652 6.59882C19.6982 6.41897 19.3426 6.32883 18.7991 6.32883H17.1011L16.0066 11.961H13.882L15.7928 2.13025ZM26.9009 6.29524C27.7144 6.29524 28.2566 6.44541 28.5279 6.74574C28.7987 7.04607 28.8631 7.56179 28.7214 8.29225C28.5736 9.05305 28.2884 9.59607 27.8657 9.92154C27.4433 10.247 26.8 10.4095 25.9371 10.4095H24.6344L25.4337 6.29524H26.9009ZM21.6828 14.5745H23.8244L24.3323 11.961H26.1666C26.9761 11.961 27.642 11.8759 28.1647 11.7058C28.6873 11.5357 29.1625 11.2507 29.5901 10.8505C29.9489 10.5209 30.2393 10.1569 30.4614 9.75902C30.6835 9.36118 30.8415 8.92238 30.9351 8.44242C31.1615 7.27706 30.9905 6.36935 30.4226 5.71928C29.8542 5.06899 28.9506 4.74396 27.7118 4.74396H23.5938L21.6828 14.5745Z" fill="black"/>
</svg>
